<svg width="55" height="10" viewBox="0 0 55 10" fill="none" xmlns="http://www.w3.org/2000/svg">
<path d="M6.1543 7.86328V9H0.787109V0.544922H6.1543V1.67578H2.09961V4.14844H5.9375V5.23828H2.09961V7.86328H6.1543ZM9.66406 9.10547C8.10547 9.10547 7.07422 7.86328 7.07422 5.91797C7.07422 3.97266 8.10547 2.73633 9.65234 2.73633C10.5371 2.73633 11.2402 3.18164 11.5859 3.86133H11.6094V0.544922H12.8809V9H11.6504V7.95117H11.627C11.2637 8.6543 10.5605 9.10547 9.66406 9.10547ZM9.99805 3.80273C8.99609 3.80273 8.36914 4.62305 8.36914 5.91797C8.36914 7.21875 8.99609 8.0332 9.99805 8.0332C10.9707 8.0332 11.6211 7.20703 11.6211 5.91797C11.6211 4.64062 10.9707 3.80273 9.99805 3.80273ZM14.2227 9V2.83594H15.4883V9H14.2227ZM14.8555 1.93359C14.4512 1.93359 14.123 1.61133 14.123 1.21289C14.123 0.808594 14.4512 0.486328 14.8555 0.486328C15.2656 0.486328 15.5938 0.808594 15.5938 1.21289C15.5938 1.61133 15.2656 1.93359 14.8555 1.93359ZM17.1523 1.37695H18.4238V2.83594H19.5957V3.83789H18.4238V7.23633C18.4238 7.76953 18.6582 8.00977 19.1738 8.00977C19.3027 8.00977 19.5078 7.99805 19.5898 7.98047V8.98242C19.4492 9.01758 19.168 9.04102 18.8867 9.04102C17.6387 9.04102 17.1523 8.56641 17.1523 7.37695V3.83789H16.2559V2.83594H17.1523V1.37695ZM23.2285 0.544922H26.3984C28.0391 0.544922 29.1816 1.67578 29.1816 3.32227C29.1816 4.97461 28.0156 6.11133 26.3574 6.11133H24.541V9H23.2285V0.544922ZM24.541 1.65234V5.00977H26.0469C27.1895 5.00977 27.8398 4.39453 27.8398 3.32812C27.8398 2.26172 27.1895 1.65234 26.0527 1.65234H24.541ZM30.1777 9V2.83594H31.3848V3.88477H31.4141C31.6191 3.16406 32.1699 2.73633 32.8965 2.73633C33.0781 2.73633 33.2363 2.76562 33.3301 2.7832V3.96094C33.2305 3.91992 33.0078 3.89062 32.7617 3.89062C31.9473 3.89062 31.4434 4.43555 31.4434 5.30859V9H30.1777ZM36.4941 9.11719C34.7305 9.11719 33.5703 7.9043 33.5703 5.91797C33.5703 3.9375 34.7363 2.72461 36.4941 2.72461C38.252 2.72461 39.418 3.9375 39.418 5.91797C39.418 7.9043 38.2578 9.11719 36.4941 9.11719ZM36.4941 8.07422C37.4902 8.07422 38.1289 7.28906 38.1289 5.91797C38.1289 4.55273 37.4844 3.76758 36.4941 3.76758C35.5039 3.76758 34.8594 4.55273 34.8594 5.91797C34.8594 7.28906 35.5039 8.07422 36.4941 8.07422ZM40.7656 9V3.83789H39.916V2.84766H40.7656V2.24414C40.7656 1.04883 41.3281 0.486328 42.582 0.486328C42.8398 0.486328 43.127 0.515625 43.291 0.544922V1.48242C43.168 1.45898 42.998 1.44727 42.8281 1.44727C42.2773 1.44727 42.0195 1.72266 42.0195 2.26758V2.84766H43.2676V3.83789H42.0371V9H40.7656ZM44.3047 9V2.83594H45.5703V9H44.3047ZM44.9375 1.93359C44.5332 1.93359 44.2051 1.61133 44.2051 1.21289C44.2051 0.808594 44.5332 0.486328 44.9375 0.486328C45.3477 0.486328 45.6758 0.808594 45.6758 1.21289C45.6758 1.61133 45.3477 1.93359 44.9375 1.93359ZM46.9121 9V0.544922H48.1777V9H46.9121ZM52.0566 3.74414C51.1719 3.74414 50.5508 4.41797 50.4863 5.34961H53.5684C53.5391 4.40625 52.9414 3.74414 52.0566 3.74414ZM53.5625 7.18945H54.7637C54.5879 8.31445 53.5215 9.11719 52.1094 9.11719C50.2988 9.11719 49.2031 7.89258 49.2031 5.94727C49.2031 4.01367 50.3164 2.72461 52.0566 2.72461C53.7676 2.72461 54.834 3.93164 54.834 5.80078V6.23438H50.4805V6.31055C50.4805 7.38281 51.125 8.0918 52.1387 8.0918C52.8594 8.0918 53.3926 7.72852 53.5625 7.18945Z" fill="white"/>
</svg>
