<svg width="36" height="48" viewBox="0 0 36 48" fill="none" xmlns="http://www.w3.org/2000/svg">
<path d="M14.5639 21.438C14.4244 21.2985 14.2589 21.1879 14.0766 21.1124C13.8944 21.037 13.6991 20.9981 13.5019 20.9981C13.3047 20.9981 13.1094 21.037 12.9271 21.1124C12.7449 21.1879 12.5794 21.2985 12.4399 21.438C12.3004 21.5775 12.1898 21.743 12.1143 21.9253C12.0388 22.1075 12 22.3028 12 22.5C12 22.6972 12.0388 22.8925 12.1143 23.0748C12.1898 23.257 12.3004 23.4225 12.4399 23.562L15.8809 27L12.4399 30.438C12.1582 30.7197 12 31.1017 12 31.5C12 31.8983 12.1582 32.2803 12.4399 32.562C12.7216 32.8437 13.1036 33.0019 13.5019 33.0019C13.9002 33.0019 14.2822 32.8437 14.5639 32.562L18.0019 29.121L21.4399 32.562C21.7216 32.8437 22.1036 33.0019 22.5019 33.0019C22.9002 33.0019 23.2822 32.8437 23.5639 32.562C23.8456 32.2803 24.0038 31.8983 24.0038 31.5C24.0038 31.1017 23.8456 30.7197 23.5639 30.438L20.1229 27L23.5639 23.562C23.8456 23.2803 24.0038 22.8983 24.0038 22.5C24.0038 22.1017 23.8456 21.7197 23.5639 21.438C23.2822 21.1563 22.9002 20.9981 22.5019 20.9981C22.1036 20.9981 21.7216 21.1563 21.4399 21.438L18.0019 24.879L14.5639 21.438Z" fill="#44546F"/>
<path d="M36 42V13.5L22.5 0H6C4.4087 0 2.88258 0.632141 1.75736 1.75736C0.632141 2.88258 0 4.4087 0 6V42C0 43.5913 0.632141 45.1174 1.75736 46.2426C2.88258 47.3679 4.4087 48 6 48H30C31.5913 48 33.1174 47.3679 34.2426 46.2426C35.3679 45.1174 36 43.5913 36 42ZM22.5 9C22.5 10.1935 22.9741 11.3381 23.818 12.182C24.6619 13.0259 25.8065 13.5 27 13.5H33V42C33 42.7957 32.6839 43.5587 32.1213 44.1213C31.5587 44.6839 30.7957 45 30 45H6C5.20435 45 4.44129 44.6839 3.87868 44.1213C3.31607 43.5587 3 42.7957 3 42V6C3 5.20435 3.31607 4.44129 3.87868 3.87868C4.44129 3.31607 5.20435 3 6 3H22.5V9Z" fill="#44546F"/>
</svg>
