<svg width="24" height="24" viewBox="0 0 24 24" fill="none" xmlns="http://www.w3.org/2000/svg">
<path d="M6.73488 12.322C6.55434 12.13 6.30529 12.0171 6.04189 12.0077C5.77849 11.9983 5.52205 12.0933 5.32832 12.272C5.13459 12.4507 5.01924 12.6987 5.00736 12.962C4.99549 13.2253 5.08803 13.4826 5.26488 13.678L8.87688 17.597C9.41388 18.123 10.2139 18.123 10.7109 17.627L11.0749 17.268C12.3894 15.9753 13.7024 14.6809 15.0139 13.385L15.0539 13.345C16.2796 12.1371 17.4989 10.9228 18.7119 9.70205C18.8932 9.51225 18.9926 9.25878 18.9886 8.99634C18.9847 8.73391 18.8777 8.48354 18.6908 8.29926C18.5039 8.11499 18.2521 8.01158 17.9896 8.01135C17.7271 8.01113 17.4751 8.1141 17.2879 8.29805C16.0805 9.51239 14.8672 10.7207 13.6479 11.923L13.6079 11.963C12.3512 13.2053 11.0928 14.446 9.83288 15.685L6.73488 12.322Z" fill="#626F86"/>
</svg>
