<svg width="20" height="20" viewBox="0 0 20 20" fill="none" xmlns="http://www.w3.org/2000/svg">
<path d="M5.61256 10.2683C5.46211 10.1083 5.25457 10.0141 5.03507 10.0063C4.81557 9.9985 4.60187 10.0777 4.44043 10.2266C4.27899 10.3755 4.18287 10.5821 4.17297 10.8016C4.16307 11.021 4.24019 11.2354 4.38756 11.3983L7.39756 14.6641C7.84506 15.1024 8.51173 15.1024 8.9259 14.6891L9.22923 14.3899C10.3247 13.3126 11.4188 12.234 12.5117 11.1541L12.5451 11.1208C13.5665 10.1142 14.5826 9.1022 15.5934 8.08494C15.7445 7.92677 15.8273 7.71555 15.824 7.49685C15.8207 7.27815 15.7316 7.06951 15.5758 6.91595C15.4201 6.76239 15.2102 6.67622 14.9915 6.67603C14.7728 6.67584 14.5627 6.76165 14.4067 6.91494C13.4006 7.92689 12.3895 8.93384 11.3734 9.93577L11.3401 9.96911C10.2928 11.0044 9.24418 12.0382 8.19423 13.0708L5.61256 10.2683Z" fill="#44546F"/>
</svg>
