<svg width="28" height="28" viewBox="0 0 28 28" fill="none" xmlns="http://www.w3.org/2000/svg">
<g clip-path="url(#clip0_7653_39890)">
<path d="M24.5175 18.8386C24.6313 18.9787 24.7625 19.1187 24.8588 19.2674C24.9113 19.3462 24.9113 19.4511 24.9288 19.5474C24.9463 19.6699 24.9725 19.8012 24.9463 19.9149C24.8763 20.2037 24.7538 20.4662 24.5 20.6411C24.3163 20.7636 24.115 20.8424 23.8875 20.8424C23.1088 20.8424 22.3213 20.8424 21.5425 20.8424C21.5338 20.8424 21.5163 20.8424 21.5075 20.8424C21.2625 20.8424 21.0175 20.8424 20.7638 20.8424C19.9675 20.8424 19.1625 20.8424 18.3663 20.8424C18.34 20.8424 18.3138 20.8424 18.2963 20.8424C16.0475 20.8424 13.8075 20.8424 11.5588 20.8424C11.5325 20.8424 11.5063 20.8424 11.4888 20.8424C11.2438 20.8424 10.9988 20.8424 10.745 20.8424C9.94878 20.8424 9.14378 20.8424 8.34753 20.8424C8.15503 20.8424 7.96253 20.8424 7.77003 20.8424C7.36753 20.8424 6.97378 20.7811 6.60628 20.6324C6.32628 20.5187 6.07253 20.3524 5.83628 20.1599C5.54753 19.9149 5.34628 19.6087 5.18003 19.2849C5.10128 19.1362 5.05753 18.9699 5.01378 18.8036C4.97003 18.6199 4.94378 18.4361 4.91753 18.2524C4.90878 18.1649 4.90878 18.0774 4.90878 17.9899C4.90878 14.6999 4.90878 11.4187 4.90878 8.12865C4.90878 7.93615 4.88253 7.7524 4.71628 7.62115C4.62878 7.55115 4.54128 7.49865 4.42753 7.49865C4.16503 7.49865 3.91128 7.49865 3.64878 7.48115C3.44753 7.4724 3.26378 7.4024 3.10628 7.27115C2.99253 7.1749 2.87878 7.06115 2.80003 6.93865C2.73878 6.8424 2.71253 6.7199 2.69503 6.6149C2.66878 6.4924 2.63378 6.36115 2.66878 6.2474C2.70378 6.1424 2.69503 6.02865 2.75628 5.92365C2.84378 5.7749 2.94003 5.64365 3.05378 5.52115C3.15003 5.4249 3.26378 5.3724 3.38628 5.32865C3.71003 5.2149 4.06003 5.2499 4.41003 5.2674C4.70753 5.2674 4.97878 5.3374 5.25878 5.41615C5.46003 5.4774 5.64378 5.57365 5.82753 5.67865C6.18628 5.88865 6.46628 6.18615 6.68503 6.53615C6.86878 6.8424 7.00003 7.16615 7.04378 7.5249C7.07878 7.8049 7.10503 8.09365 7.10503 8.37365C7.10503 11.5587 7.10503 14.7524 7.10503 17.9374C7.10503 18.0949 7.14003 18.2349 7.20128 18.3749C7.24503 18.4799 7.35003 18.5499 7.46378 18.5761C7.55128 18.6024 7.63878 18.6112 7.73503 18.6112C13.0725 18.6112 18.4013 18.6112 23.7388 18.6112C23.8613 18.6112 23.9838 18.6111 24.0975 18.6374C24.2113 18.6636 24.3163 18.7249 24.43 18.7687L24.5263 18.8386H24.5175Z" fill="#3353CB"/>
<path opacity="0.4" d="M9.3276 15.3564C9.3276 15.1376 9.3451 14.9189 9.3451 14.7001C9.3451 12.4864 9.3451 10.2726 9.3451 8.06762C9.3451 7.84887 9.33635 7.63012 9.3276 7.41137C9.3276 7.36762 9.35385 7.32387 9.3451 7.28012C9.3451 7.18387 9.3626 7.09637 9.4151 7.02637C9.4151 7.02637 9.4151 7.01762 9.4151 7.00887C9.4326 6.97387 9.4501 6.94762 9.4676 6.91262C9.59885 6.70262 9.77385 6.53637 9.9926 6.44012C10.1413 6.37012 10.3076 6.37012 10.4738 6.37012C11.3313 6.37012 12.1801 6.37012 13.0376 6.37012C13.6413 6.37012 14.2451 6.37012 14.8488 6.37012C14.9626 6.37012 15.0851 6.37012 15.1988 6.39637C15.3563 6.44012 15.5051 6.51887 15.6363 6.62387C15.7763 6.73762 15.8551 6.88637 15.9426 7.03512C16.0038 7.14012 16.0213 7.26262 16.0038 7.39387C16.0038 7.47262 16.0038 7.56012 16.0038 7.64762C16.0038 10.1589 16.0038 12.6789 16.0038 15.1901C16.0038 15.2776 16.0301 15.3739 16.0126 15.4526C15.9863 15.5926 15.9513 15.7326 15.8726 15.8464C15.8113 15.9339 15.7501 16.0126 15.6888 16.1001C15.5926 16.1701 15.5051 16.2314 15.4088 16.3014C15.4001 16.3014 15.3826 16.3014 15.3738 16.3014C15.3388 16.3101 15.3126 16.3276 15.2776 16.3364C15.2776 16.3364 15.2601 16.3364 15.2601 16.3451C15.2251 16.3451 15.1901 16.3626 15.1463 16.3714C15.0413 16.3714 14.9363 16.3889 14.8313 16.3889C13.3351 16.3889 11.8476 16.3889 10.3513 16.3889C10.3163 16.3889 10.2901 16.3889 10.2551 16.3889C10.2026 16.3801 10.1413 16.3626 10.0888 16.3539C10.0626 16.3539 10.0363 16.3364 10.0188 16.3276C10.0101 16.3276 9.9926 16.3276 9.98385 16.3189C9.77385 16.2226 9.6076 16.0826 9.4851 15.8901C9.4326 15.7501 9.38885 15.6189 9.33635 15.4789C9.33635 15.4701 9.33635 15.4526 9.33635 15.4439C9.33635 15.4089 9.31885 15.3826 9.31885 15.3476L9.3276 15.3564Z" fill="#6EBF0C"/>
<path opacity="0.4" d="M17.9113 16.345C17.9113 16.345 17.8851 16.345 17.8676 16.345C17.8588 16.345 17.8413 16.3275 17.8326 16.3188C17.8151 16.31 17.7976 16.3013 17.7801 16.2838L17.6838 16.2488C17.6401 16.2138 17.5788 16.1963 17.5438 16.1525C17.4476 16.0563 17.3688 15.96 17.2813 15.855C17.2551 15.7763 17.1763 15.7063 17.2113 15.61C17.2113 15.61 17.1938 15.5925 17.1851 15.575C17.1413 15.4963 17.1151 15.4088 17.1413 15.3213C17.1413 15.3038 17.1413 15.2863 17.1413 15.2775C17.1413 14.56 17.1413 13.8513 17.1413 13.1338C17.1413 12.9238 17.1588 12.7313 17.2376 12.5475C17.3426 12.3113 17.5176 12.145 17.7451 12.0225C17.9113 11.9438 18.0776 11.9263 18.2613 11.9263C19.7313 11.9263 21.2013 11.9263 22.6713 11.9263C22.8201 11.9263 22.9863 11.9438 23.1263 11.9788C23.2313 12.005 23.3188 12.0925 23.4151 12.1538C23.5813 12.2675 23.6776 12.4338 23.7563 12.6088C23.8001 12.705 23.8001 12.8275 23.8088 12.9413C23.8088 12.9938 23.8088 13.0463 23.8088 13.0988C23.8088 13.8338 23.8088 14.5688 23.8088 15.3038C23.8088 15.4088 23.7913 15.5138 23.7913 15.6188C23.7913 15.6275 23.7826 15.645 23.7738 15.6538C23.6863 15.7938 23.6076 15.9425 23.5026 16.065C23.3101 16.2663 23.0651 16.38 22.7763 16.38C21.2451 16.38 19.7138 16.38 18.1826 16.38C18.1563 16.38 18.1301 16.38 18.1038 16.38C18.0863 16.38 18.0688 16.38 18.0513 16.38C18.0426 16.38 18.0251 16.3625 18.0163 16.3625C17.9988 16.3625 17.9813 16.3625 17.9551 16.3625L17.9201 16.3363L17.9113 16.345Z" fill="#6EBF0C"/>
<path opacity="0.4" d="M17.1674 10.0449C17.1412 9.92241 17.1062 9.79991 17.1412 9.67741C17.1412 9.65991 17.1412 9.63366 17.1412 9.61616C17.1412 8.90741 17.1412 8.19866 17.1412 7.48116C17.1412 7.41116 17.1412 7.34991 17.1412 7.27991C17.1587 7.20116 17.1849 7.12241 17.2024 7.04366C17.2899 6.86866 17.3949 6.70241 17.5524 6.59741C17.6749 6.51866 17.8149 6.45741 17.9549 6.40491C18.0424 6.36991 18.1474 6.37866 18.2437 6.37866C18.9787 6.37866 19.7137 6.37866 20.4487 6.37866C20.6412 6.37866 20.8424 6.40491 21.0174 6.50116C21.2187 6.61491 21.3762 6.77241 21.4637 6.98241C21.5074 7.08741 21.5512 7.20116 21.5774 7.31491C21.5949 7.38491 21.5774 7.46366 21.5774 7.54241C21.5774 8.28616 21.5687 9.02991 21.5774 9.78241C21.5774 10.0187 21.5074 10.2199 21.3674 10.4037C21.2449 10.5787 21.0699 10.7012 20.8687 10.7712C20.7374 10.8237 20.5974 10.8412 20.4574 10.8324C19.7137 10.8324 18.9787 10.8324 18.2437 10.8324C17.9549 10.8324 17.6924 10.7449 17.4737 10.5612C17.3949 10.4912 17.3424 10.3949 17.2812 10.3074C17.2374 10.2199 17.1937 10.1324 17.1587 10.0449H17.1674Z" fill="#6EBF0C"/>
<path opacity="0.4" d="M18.3487 20.8513C19.145 20.8513 19.95 20.8513 20.7462 20.8513C20.9912 20.8513 21.2362 20.8513 21.49 20.8513C21.525 21.0351 21.5862 21.2101 21.5862 21.3938C21.5862 21.6388 21.5337 21.8751 21.4287 22.1026C21.1575 22.6888 20.6937 22.9951 20.0637 23.0563C19.25 23.1351 18.4712 22.6013 18.2962 21.7438C18.235 21.4376 18.2525 21.1401 18.3487 20.8513Z" fill="#6EBF0C"/>
<path opacity="0.4" d="M8.32114 20.8513C9.11739 20.8513 9.92239 20.8513 10.7186 20.8513C10.9636 20.8513 11.2086 20.8513 11.4624 20.8513C11.4974 21.0351 11.5586 21.2101 11.5586 21.3938C11.5586 21.6388 11.5061 21.8751 11.4011 22.1026C11.1299 22.6888 10.6661 22.9951 10.0361 23.0563C9.22239 23.1351 8.44364 22.6013 8.26864 21.7438C8.20739 21.4376 8.22489 21.1401 8.32114 20.8513Z" fill="#6EBF0C"/>
</g>
<defs>
<clipPath id="clip0_7653_39890">
<rect width="22.33" height="17.815" fill="white" transform="translate(2.625 5.25)"/>
</clipPath>
</defs>
</svg>
