<svg width="22" height="20" viewBox="0 0 22 20" fill="none" xmlns="http://www.w3.org/2000/svg">
<g clip-path="url(#clip0_7653_3508)">
<path d="M7.21646 9.70959C7.69148 9.70959 8.17754 9.69854 8.65255 9.70959C9.29327 9.73168 9.85665 9.94157 10.3096 10.4055C10.5084 10.6154 10.6741 10.8474 10.7846 11.1236C10.8951 11.3887 10.9724 11.6538 10.9724 11.941C10.9724 12.0847 10.9945 12.2393 10.9945 12.3829C10.9945 13.7969 11.0055 15.2109 10.9945 16.6249C10.9945 17.4755 10.641 18.1825 9.91189 18.6575C9.60258 18.8564 9.27117 18.9779 8.90663 19.011C8.76302 19.0221 8.60836 19.0331 8.46475 19.0331C6.60889 19.0331 4.75302 19.0331 2.90821 19.0331C2.62099 19.0331 2.34482 19 2.07969 18.9005C1.86981 18.8232 1.67096 18.7238 1.49421 18.5912C1.32851 18.4697 1.17386 18.3151 1.04129 18.1604C0.941873 18.0499 0.875592 17.9063 0.798264 17.7738C0.698843 17.6081 0.621515 17.4424 0.588375 17.2546C0.53314 17.0668 0.5 16.8569 0.5 16.6359C0.5 15.0894 0.5 13.5428 0.5 11.9852C0.5 11.6759 0.566281 11.3777 0.70989 11.0904C0.820358 10.8695 0.930826 10.6596 1.09653 10.4829C1.28432 10.284 1.49421 10.0962 1.73724 9.97471C1.94713 9.87529 2.16807 9.78691 2.40005 9.75377C3.01867 9.65435 3.64834 9.72063 4.27801 9.69854C4.27801 9.74273 4.27801 9.77587 4.27801 9.82006C4.27801 10.748 4.27801 11.6759 4.27801 12.6039C4.27801 12.9684 4.50999 13.2004 4.87454 13.2004C5.44897 13.2004 6.02341 13.2004 6.59784 13.2004C6.69726 13.2004 6.80773 13.1672 6.90715 13.1231C7.11704 13.0126 7.19437 12.8137 7.19437 12.5928C7.19437 11.6317 7.19437 10.6707 7.19437 9.70959H7.21646Z" fill="#3353CB"/>
<path d="M12.2206 18.768C12.0991 18.6906 11.9886 18.6244 11.8782 18.547C11.9445 18.3371 12.0218 18.1493 12.066 17.9505C12.1102 17.7737 12.1433 17.597 12.1433 17.4203C12.1543 15.4539 12.1654 13.4876 12.1654 11.5213C12.1654 11.3114 12.1102 11.1125 12.0991 10.9026C12.077 10.6817 11.9886 10.4939 11.9113 10.2951C11.8892 10.2398 11.8782 10.1956 11.9555 10.1625C12.0549 10.1073 12.1433 10.041 12.2427 9.9747C12.2427 9.9747 12.2538 9.9747 12.2648 9.96365C12.4857 9.86423 12.7177 9.77585 12.9718 9.74271C13.5904 9.66539 14.198 9.72062 14.8166 9.70957C14.8166 10.6265 14.8166 11.5544 14.8166 12.4713C14.8166 12.5265 14.8498 12.5928 14.8277 12.648C14.7835 12.7695 14.8719 12.8469 14.894 12.9463C14.9492 13.123 15.137 13.1341 15.2806 13.2114C15.2916 13.2114 15.3248 13.2004 15.3469 13.1893C15.3579 13.1893 15.38 13.1783 15.3911 13.1893C15.4573 13.1893 15.5126 13.2225 15.5789 13.2225C16.0539 13.2225 16.5399 13.2225 17.0149 13.2225C17.0923 13.2225 17.1806 13.2225 17.2469 13.2004C17.3574 13.1672 17.4789 13.123 17.5562 13.0457C17.6336 12.9684 17.6778 12.8579 17.7109 12.7585C17.733 12.6701 17.733 12.5707 17.733 12.4823C17.733 11.5654 17.733 10.6375 17.733 9.72062C18.208 9.72062 18.6941 9.70957 19.1691 9.72062C19.7987 9.74271 20.3732 9.9526 20.8261 10.4166C21.1685 10.759 21.4005 11.1678 21.4668 11.6538C21.5 11.8747 21.522 12.1067 21.522 12.3277C21.522 13.7748 21.5331 15.2109 21.522 16.658C21.522 17.3429 21.279 17.9505 20.7598 18.4145C20.4063 18.7348 20.0086 18.9558 19.5226 19.011C19.3348 19.0331 19.147 19.0441 18.9592 19.0441C17.026 19.0441 15.0928 19.0441 13.1707 19.0441C12.8503 19.0441 12.552 18.9447 12.2648 18.7901H12.2427L12.2206 18.768Z" fill="#3353CB"/>
<path d="M12.4527 0.838966V0.375C12.4527 0.375 12.519 0.375 12.5521 0.375C12.9498 0.375 13.3475 0.375 13.7341 0.375C13.9772 0.375 14.2202 0.40814 14.4522 0.485468C14.9051 0.629077 15.2365 0.905247 15.4574 1.33607C15.5679 1.55701 15.6342 1.78899 15.6452 2.03202C15.6452 2.38552 15.6673 2.75007 15.6673 3.10356C15.6673 4.10882 15.6673 5.11408 15.6673 6.11934C15.6673 6.42866 15.6121 6.73797 15.5016 7.02518C15.3249 7.48915 15.0266 7.87579 14.6068 8.15196C14.2865 8.36185 13.944 8.49441 13.5574 8.52755C13.4359 8.5386 13.3033 8.54964 13.1818 8.54964C11.6573 8.54964 10.1329 8.54964 8.60841 8.54964C8.39852 8.54964 8.19968 8.49441 8.00083 8.45022C7.70257 8.38394 7.44849 8.22929 7.21651 8.04149C6.95139 7.8316 6.7415 7.56648 6.58684 7.26821C6.46533 7.02518 6.37695 6.77111 6.35486 6.49494C6.34381 6.30714 6.33276 6.11935 6.33276 5.93155C6.33276 4.62803 6.33276 3.3245 6.33276 2.02098C6.33276 1.81109 6.388 1.61224 6.48742 1.4134C6.58684 1.21456 6.70836 1.01572 6.87406 0.86106C7.08395 0.662217 7.32698 0.518609 7.60315 0.463375C7.83513 0.419187 8.06711 0.386047 8.2991 0.386047C8.70783 0.375 9.11656 0.386047 9.53634 0.386047V0.82792C9.53634 0.82792 9.53634 0.850013 9.53634 0.872107C9.53634 1.68957 9.53634 2.50704 9.53634 3.3245C9.53634 3.6559 9.77937 3.88789 10.1218 3.88789C10.7073 3.88789 11.2928 3.88789 11.8672 3.88789C12.2097 3.88789 12.4527 3.64486 12.4527 3.30241C12.4527 2.50704 12.4527 1.72271 12.4527 0.927341C12.4527 0.905247 12.4527 0.8942 12.4527 0.872107C12.4527 0.872107 12.4527 0.86106 12.4527 0.850013V0.838966Z" fill="#3353CB"/>
<path opacity="0.4" d="M7.21641 9.70953C7.21641 10.6706 7.21641 11.6317 7.21641 12.5928C7.21641 12.8247 7.13908 13.0236 6.92919 13.123C6.84082 13.1672 6.73035 13.2003 6.61988 13.2003C6.04545 13.2003 5.47101 13.2003 4.89658 13.2003C4.52099 13.2003 4.30005 12.9683 4.30005 12.6038C4.30005 11.6759 4.30005 10.7479 4.30005 9.82C4.30005 9.77581 4.30005 9.74267 4.30005 9.69849C5.27217 9.69849 6.24429 9.69849 7.21641 9.69849V9.70953Z" fill="#6EBF0C"/>
<path opacity="0.4" d="M17.7108 9.70953C17.7108 10.6264 17.7108 11.5544 17.7108 12.4712C17.7108 12.5596 17.7108 12.659 17.6888 12.7474C17.6556 12.8468 17.6114 12.9683 17.5341 13.0346C17.4568 13.112 17.3353 13.1561 17.2248 13.1893C17.1475 13.2114 17.0701 13.2114 16.9928 13.2114C16.5178 13.2114 16.0317 13.2114 15.5567 13.2114C15.4904 13.2114 15.4352 13.1893 15.3689 13.1782C15.3579 13.1782 15.3358 13.1782 15.3247 13.1782C15.3026 13.1782 15.2805 13.2003 15.2585 13.2003C15.1148 13.134 14.927 13.112 14.8718 12.9352C14.8387 12.8468 14.7613 12.7585 14.8055 12.6369C14.8276 12.5817 14.7945 12.5154 14.7945 12.4602C14.7945 11.5433 14.7945 10.6154 14.7945 9.69849C15.7666 9.69849 16.7387 9.69849 17.7108 9.69849V9.70953Z" fill="#6EBF0C"/>
<path opacity="0.4" d="M12.4637 0.92722C12.4637 1.72259 12.4637 2.50691 12.4637 3.30229C12.4637 3.64474 12.2207 3.88777 11.8782 3.88777C11.2928 3.88777 10.7073 3.88777 10.1328 3.88777C9.80144 3.88777 9.55841 3.65578 9.54736 3.32438C9.54736 2.50691 9.54736 1.68945 9.54736 0.871986C9.54736 0.860939 9.54736 0.849892 9.54736 0.827799C9.54736 0.816752 9.56946 0.794658 9.56946 0.783611C9.65783 0.507441 9.83458 0.396973 10.1218 0.396973C10.6962 0.396973 11.2817 0.396973 11.8672 0.396973C12.1434 0.396973 12.3422 0.551628 12.4306 0.805705C12.4306 0.827799 12.4527 0.849892 12.4637 0.860939C12.4637 0.860939 12.4637 0.871986 12.4637 0.883033C12.4637 0.905126 12.4637 0.916173 12.4637 0.938267V0.92722Z" fill="#6EBF0C"/>
</g>
<defs>
<clipPath id="clip0_7653_3508">
<rect width="21" height="18.6691" fill="white" transform="translate(0.5 0.375)"/>
</clipPath>
</defs>
</svg>
