<svg width="22" height="20" viewBox="0 0 22 20" fill="none" xmlns="http://www.w3.org/2000/svg">
<g clip-path="url(#clip0_compliance)">
<path d="M2.5 3.5C2.5 2.67157 3.17157 2 4 2H18C18.8284 2 19.5 2.67157 19.5 3.5V16.5C19.5 17.3284 18.8284 18 18 18H4C3.17157 18 2.5 17.3284 2.5 16.5V3.5Z" fill="#3353CB"/>
<path d="M6 6H16V7.5H6V6Z" fill="white"/>
<path d="M6 9H16V10.5H6V9Z" fill="white"/>
<path d="M6 12H13V13.5H6V12Z" fill="white"/>
<path d="M15.5 12.5C15.5 13.3284 14.8284 14 14 14C13.1716 14 12.5 13.3284 12.5 12.5C12.5 11.6716 13.1716 11 14 11C14.8284 11 15.5 11.6716 15.5 12.5Z" fill="#6EBF0C"/>
<path d="M4.5 5.5C4.5 5.22386 4.72386 5 5 5H17C17.2761 5 17.5 5.22386 17.5 5.5C17.5 5.77614 17.2761 6 17 6H5C4.72386 6 4.5 5.77614 4.5 5.5Z" fill="white" opacity="0.4"/>
</g>
<defs>
<clipPath id="clip0_compliance">
<rect width="21" height="18" fill="white" transform="translate(0.5 1)"/>
</clipPath>
</defs>
</svg>
