<svg width="20" height="20" viewBox="0 0 20 20" fill="none" xmlns="http://www.w3.org/2000/svg">
<rect width="20" height="20" rx="3.75" fill="#F7F8F9"/>
<path fill-rule="evenodd" clip-rule="evenodd" d="M7.91884 5.83337C7.45676 5.83337 7.08301 6.20504 7.08301 6.66254V13.3375C7.08444 13.5582 7.17317 13.7692 7.3298 13.9246C7.48643 14.08 7.69821 14.167 7.91884 14.1667H12.0805C12.5426 14.1667 12.9163 13.7955 12.9163 13.3375V6.66254C12.9163 6.20754 12.5422 5.83337 12.0805 5.83337H7.91884ZM8.74967 7.50004H11.2497C11.4798 7.50004 11.6663 7.68659 11.6663 7.91671C11.6663 8.14683 11.4798 8.33337 11.2497 8.33337H8.74967C8.51956 8.33337 8.33301 8.14683 8.33301 7.91671C8.33301 7.68659 8.51956 7.50004 8.74967 7.50004ZM11.2497 8.75004H8.74967C8.51956 8.75004 8.33301 8.93659 8.33301 9.16671C8.33301 9.39683 8.51956 9.58337 8.74967 9.58337H11.2497C11.4798 9.58337 11.6663 9.39683 11.6663 9.16671C11.6663 8.93659 11.4798 8.75004 11.2497 8.75004ZM8.74967 10H9.58301C9.81313 10 9.99967 10.1866 9.99967 10.4167C9.99967 10.6468 9.81313 10.8334 9.58301 10.8334H8.74967C8.51956 10.8334 8.33301 10.6468 8.33301 10.4167C8.33301 10.1866 8.51956 10 8.74967 10Z" fill="#44546F"/>
</svg>
