<svg width="22" height="18" viewBox="0 0 22 18" fill="none" xmlns="http://www.w3.org/2000/svg">
<g clip-path="url(#clip0_7653_36922)">
<path opacity="0.4" d="M0.93762 14.4162C1.07762 13.9787 1.30512 13.5937 1.55887 13.2262C1.79512 12.8937 2.04887 12.5787 2.32887 12.2899C2.82762 11.7912 3.38762 11.3887 4.04387 11.1087C4.72637 10.8199 5.42637 10.6187 6.17012 10.6099C7.37762 10.5924 8.59387 10.5662 9.80137 10.5837C10.7551 10.6012 11.6826 10.8287 12.5314 11.2837C13.1439 11.6162 13.6864 12.0362 14.1589 12.5612C14.5964 13.0424 14.9376 13.5849 15.2089 14.1712C15.4189 14.6262 15.5676 15.0987 15.6201 15.6062C15.6464 15.8512 15.7426 16.0874 15.7339 16.3237C15.7251 16.5599 15.7864 16.8137 15.6376 17.0499C15.4889 17.2774 15.3051 17.4524 15.0689 17.5837C14.9376 17.6537 14.8064 17.6274 14.6751 17.6274C11.6564 17.6274 8.63762 17.6274 5.61012 17.6274C4.33262 17.6274 3.05512 17.6274 1.77762 17.6274C1.53262 17.6274 1.28762 17.6712 1.06012 17.5487C1.04262 17.5399 1.01637 17.5224 0.99887 17.5137C0.88512 17.3999 0.78012 17.2949 0.66637 17.1812C0.64887 17.1462 0.63137 17.1199 0.61387 17.0849C0.57887 16.9537 0.51762 16.8224 0.50012 16.6824C0.45637 16.2187 0.55262 15.7637 0.64887 15.3087C0.65762 15.2562 0.64012 15.1949 0.63137 15.1337C0.65762 15.1162 0.69262 15.0987 0.71887 15.0812C0.70137 15.0637 0.68387 15.0462 0.66637 15.0287C0.71887 14.8712 0.77137 14.7224 0.83262 14.5649C0.86762 14.5124 0.89387 14.4599 0.92887 14.3987L0.93762 14.4162Z" fill="#6EBF0C"/>
<path opacity="0.4" d="M10.4227 8.26495C10.2127 8.35245 9.99392 8.42245 9.81017 8.54495C9.55642 8.7112 9.27642 8.78995 8.98767 8.84245C8.67267 8.9037 8.34892 8.9737 8.02517 8.9562C7.01892 8.9037 6.10017 8.59745 5.33017 7.9237C5.12892 7.7487 4.93642 7.5737 4.77017 7.3637C4.42017 6.93495 4.13142 6.46245 3.96517 5.9287C3.94767 5.86745 3.94767 5.79745 3.93892 5.7362C3.93892 5.7187 3.95642 5.69245 3.94767 5.67495C3.65892 5.0887 3.74642 4.4762 3.82517 3.87245C3.85142 3.6712 3.89517 3.46995 3.93892 3.27745C3.95642 3.18995 4.02642 3.11995 4.06142 3.03245C4.08767 2.9712 4.07017 2.9012 4.10517 2.8487C4.31517 2.50745 4.51642 2.1662 4.74392 1.84245C4.84892 1.6937 4.98892 1.5712 5.12892 1.4487C5.44392 1.1512 5.78517 0.897448 6.17017 0.713698C6.89642 0.346198 7.65767 0.206198 8.45392 0.258698C8.95267 0.293698 9.44267 0.433698 9.90642 0.617448C9.91517 0.617448 9.92392 0.634948 9.93267 0.643698C9.94142 0.643698 9.95892 0.643698 9.96767 0.652448C9.97642 0.652448 9.98517 0.669948 9.99392 0.678698C10.0027 0.678698 10.0202 0.678698 10.0289 0.687448C10.0377 0.687448 10.0464 0.704948 10.0552 0.713698C10.0639 0.713698 10.0814 0.713698 10.0902 0.722448C10.0989 0.722448 10.1077 0.739948 10.1164 0.748698C10.1252 0.748698 10.1427 0.748698 10.1514 0.757448C10.1602 0.757448 10.1689 0.774948 10.1777 0.783698C10.1864 0.783698 10.2039 0.783698 10.2127 0.792448C10.2214 0.792448 10.2302 0.809948 10.2389 0.818698C10.8077 1.1337 11.2627 1.57995 11.6564 2.0962C11.7177 2.17495 11.7702 2.2537 11.8314 2.33245C11.8577 2.3587 11.8927 2.3937 11.9189 2.41995C11.9889 2.57745 12.0589 2.7262 12.1289 2.8837C12.1464 2.90995 12.1639 2.92745 12.1902 2.9537C12.2252 3.0937 12.2602 3.2337 12.2864 3.36495C12.2952 3.4087 12.3039 3.4437 12.3127 3.48745C12.3302 3.50495 12.3389 3.52245 12.3564 3.5487C12.3827 4.02995 12.4352 4.50245 12.4264 4.9837C12.4089 5.65745 12.1814 6.2787 11.8314 6.8562C11.4814 7.4337 11.0002 7.87995 10.4489 8.2562C10.4402 8.2562 10.4227 8.2737 10.4139 8.28245L10.4227 8.26495Z" fill="#6EBF0C"/>
<path d="M16.8189 8.87751C17.2739 8.42251 17.7114 7.98501 18.1489 7.54751C18.9714 6.72501 19.7851 5.90251 20.6164 5.08001C21.0276 4.67751 21.7714 4.92251 21.9201 5.38626C22.0426 5.76251 21.9464 6.05126 21.7014 6.30501C20.2926 7.73126 18.8751 9.14876 17.4489 10.5575C17.0464 10.9513 16.5651 10.9425 16.1714 10.5488C15.4889 9.87501 14.8151 9.19251 14.1414 8.51876C13.7826 8.16001 13.7301 7.75751 14.0276 7.34626C14.1939 7.11876 14.6139 6.96126 14.9114 7.11876C15.0514 7.19751 15.2001 7.27626 15.3139 7.39001C15.8214 7.88001 16.3114 8.38751 16.8276 8.89501L16.8189 8.87751Z" fill="#3353CB"/>
</g>
<defs>
<clipPath id="clip0_7653_36922">
<rect width="21.4725" height="17.3863" fill="white" transform="translate(0.5 0.25)"/>
</clipPath>
</defs>
</svg>
