<svg width="21" height="16" viewBox="0 0 21 16" fill="none" xmlns="http://www.w3.org/2000/svg">
<g clip-path="url(#clip0_7653_42230)">
<path d="M10.2292 12.9296C9.91303 12.9296 9.59682 12.9286 9.28161 12.9306C9.23531 12.9306 9.21364 12.9207 9.2028 12.8725C9.13385 12.573 9.03731 12.2824 8.93093 11.9948C8.88956 11.8815 8.8206 11.782 8.76938 11.6737C8.67284 11.4698 8.52312 11.3003 8.37437 11.1388C8.23942 10.992 8.08674 10.8551 7.92618 10.73C7.70749 10.5606 7.47207 10.4217 7.22876 10.2936C7.12927 10.2414 7.01303 10.2168 6.90665 10.1744C6.75396 10.1124 6.58946 10.1005 6.43185 10.0592C6.22598 10.006 6.01616 9.99908 5.80831 9.99317C5.55318 9.98529 5.29904 10.0247 5.04687 10.0749C4.94147 10.0956 4.83607 10.1183 4.73362 10.1478C4.66368 10.1675 4.5967 10.205 4.52577 10.2256C4.42431 10.2542 4.33073 10.3035 4.23912 10.3507C4.1751 10.3833 4.11501 10.4276 4.05196 10.466C4.00665 10.4926 3.96232 10.5221 3.9111 10.5359C3.85889 10.5487 3.84412 10.6039 3.80373 10.6315C3.73379 10.6798 3.66582 10.732 3.59884 10.7852C3.41956 10.926 3.26885 11.0945 3.11419 11.2609C2.93492 11.454 2.81178 11.6776 2.69259 11.9061C2.61871 12.048 2.58916 12.2076 2.52612 12.3543C2.50543 12.4036 2.50839 12.4686 2.48967 12.506C2.45125 12.5799 2.45519 12.6607 2.42564 12.7336C2.40693 12.7809 2.40397 12.836 2.39609 12.8873C2.39018 12.9217 2.37147 12.9336 2.33699 12.9336C2.17741 12.9326 2.01586 12.9444 1.85727 12.9306C1.6642 12.9139 1.47507 12.8794 1.29185 12.8016C1.10272 12.7218 0.946095 12.6026 0.792427 12.4735C0.756965 12.443 0.724458 12.4046 0.701802 12.3642C0.651564 12.2765 0.579655 12.2007 0.549119 12.1022C0.524492 12.0253 0.492971 11.9485 0.461449 11.8786C0.416137 11.7771 0.426972 11.6717 0.396435 11.5722C0.38166 11.5249 0.373779 11.4747 0.373779 11.4245C0.374764 8.17083 0.374764 4.92015 0.37772 1.67047C0.37772 1.44489 0.422047 1.22227 0.512672 1.0095C0.583595 0.843023 0.689981 0.705116 0.804247 0.571148C0.829859 0.541597 0.86335 0.517956 0.896842 0.49727C0.972691 0.448017 1.02687 0.366258 1.10666 0.330796C1.19137 0.292379 1.27904 0.257902 1.36671 0.225395C1.48098 0.183038 1.60214 0.173187 1.72035 0.148561C1.87598 0.117039 2.03261 0.125905 2.18923 0.125905C5.32071 0.125905 8.45121 0.125905 11.5827 0.125905C11.7107 0.125905 11.8358 0.152501 11.9629 0.166292C12.021 0.172202 12.0861 0.159397 12.1363 0.191903C12.2594 0.271693 12.4052 0.303214 12.5244 0.393839C12.5973 0.449002 12.6731 0.50121 12.7451 0.558343C12.7746 0.581984 12.7894 0.622371 12.813 0.653893C12.8899 0.753383 12.9716 0.847948 13.015 0.97108C13.0406 1.04299 13.0721 1.11293 13.1125 1.1809C13.1322 1.21537 13.1282 1.28334 13.1371 1.33555C13.209 1.76897 13.1686 2.20633 13.1785 2.64173C13.1814 2.77077 13.1814 2.89981 13.1785 3.02984C13.1775 3.07417 13.1913 3.08303 13.2327 3.08303C13.6818 3.08106 14.131 3.08205 14.5812 3.08303C14.7408 3.08303 14.9003 3.08993 15.057 3.11751C15.2865 3.1579 15.5062 3.22488 15.7091 3.34998C15.9002 3.46819 16.0706 3.60806 16.2282 3.76567C16.9778 4.51333 17.7255 5.26295 18.4771 6.00864C18.6741 6.20368 18.8248 6.43024 18.9331 6.68143C19.012 6.86366 19.0563 7.0587 19.0681 7.26458C19.1105 7.97874 19.078 8.69389 19.0878 9.40805C19.0927 9.80207 19.0878 10.1961 19.0878 10.5901C19.0878 10.6926 19.0917 10.795 19.0868 10.8975C19.0839 10.9487 19.1026 10.9664 19.1499 10.9703C19.2622 10.9802 19.3725 10.9989 19.4779 11.0423C19.5636 11.0777 19.6375 11.126 19.7123 11.1802C19.8689 11.2944 19.9546 11.454 20.0285 11.6254C20.0453 11.6638 20.0551 11.7022 20.0492 11.7446C20.0413 11.7998 20.0591 11.8539 20.064 11.9081C20.0886 12.1997 19.9724 12.441 19.798 12.6607C19.7537 12.7168 19.6847 12.7484 19.6237 12.7848C19.5567 12.8242 19.4828 12.8518 19.4129 12.8882C19.3242 12.9355 19.2257 12.9286 19.1331 12.9306C18.8031 12.9375 18.4731 12.9326 18.1422 12.9345C18.0978 12.9345 18.0781 12.9227 18.0683 12.8784C18.0023 12.5868 17.9116 12.3012 17.8043 12.0234C17.7245 11.8165 17.6171 11.6224 17.4841 11.4432C17.3088 11.2077 17.1098 10.995 16.8833 10.8078C16.6685 10.6305 16.438 10.4768 16.1898 10.3498C15.9809 10.2434 15.7603 10.1656 15.5347 10.1084C15.4116 10.0769 15.2855 10.0552 15.1594 10.0365C15.0451 10.0198 14.9299 10.0168 14.8146 10.004C14.7398 9.99514 14.6649 9.98529 14.5891 9.99317C14.4255 10.0089 14.261 10.0198 14.0995 10.0464C13.8641 10.0848 13.6316 10.133 13.409 10.2247C13.3361 10.2542 13.2533 10.2749 13.1873 10.3113C13.0898 10.3645 12.9943 10.4236 12.8987 10.4818C12.8623 10.5044 12.8022 10.5162 12.7815 10.5369C12.7185 10.6029 12.6446 10.6512 12.5727 10.7034C12.2535 10.9378 11.9816 11.2186 11.761 11.5446C11.6438 11.718 11.5472 11.9071 11.4793 12.1091C11.4044 12.3317 11.3256 12.5523 11.2793 12.7828C11.2744 12.8055 11.2754 12.8262 11.2734 12.8479C11.2655 12.9227 11.2527 12.9345 11.1788 12.9345C10.8626 12.9345 10.5464 12.9345 10.2312 12.9345L10.2292 12.9296ZM15.1446 8.00534C15.7849 8.00534 16.4242 8.00534 17.0645 8.00534C17.0911 8.00534 17.1207 8.01716 17.1207 7.96692C17.1177 7.79651 17.1197 7.62609 17.1197 7.45666C17.1197 7.43992 17.1207 7.42317 17.1049 7.41234C17.0418 7.36801 17.0005 7.30398 16.9473 7.2498C16.2351 6.53761 15.5229 5.8264 14.8117 5.11224C14.7674 5.06791 14.7221 5.0492 14.66 5.0492C14.1882 5.05117 13.7163 5.05117 13.2445 5.0492C13.1923 5.0492 13.1775 5.06003 13.1775 5.11519C13.1795 6.0569 13.1795 6.99763 13.1775 7.93934C13.1775 7.99056 13.1864 8.00731 13.2425 8.00731C13.8759 8.00435 14.5103 8.00534 15.1437 8.00534H15.1446Z" fill="#091E42" fill-opacity="0.31"/>
<path opacity="0.3" d="M5.83396 15.873C5.47836 15.8809 5.15132 15.807 4.83413 15.6711C4.67357 15.6021 4.52778 15.5144 4.38593 15.413C4.11307 15.2179 3.88356 14.9835 3.6964 14.7057C3.59986 14.5639 3.53583 14.4072 3.48165 14.2457C3.3861 13.96 3.33291 13.6675 3.34178 13.366C3.35261 13.0163 3.42551 12.6824 3.57917 12.3652C3.64517 12.2283 3.71413 12.0914 3.80771 11.9751C3.91114 11.8461 4.02934 11.7279 4.15051 11.6146C4.35244 11.4265 4.58491 11.2866 4.83413 11.1743C5.04789 11.0778 5.27149 11.0157 5.50298 10.9861C5.85957 10.9408 6.21025 10.9802 6.55009 11.0945C6.68701 11.1408 6.82591 11.192 6.95101 11.2629C7.03375 11.3102 7.11157 11.3752 7.19333 11.4265C7.35784 11.5289 7.48688 11.6678 7.61986 11.8028C7.76762 11.9525 7.89272 12.1209 7.98433 12.314C8.0257 12.4007 8.07298 12.4874 8.09071 12.58C8.10746 12.6627 8.15967 12.7307 8.16755 12.8164C8.17641 12.9031 8.20794 12.9868 8.2168 13.0754C8.23552 13.2527 8.25325 13.4301 8.22961 13.6093C8.22271 13.6645 8.23946 13.7226 8.21877 13.7738C8.19217 13.8398 8.19907 13.9108 8.18035 13.9768C8.13406 14.1373 8.0917 14.2979 8.02275 14.4525C7.95872 14.5964 7.87597 14.7293 7.78732 14.8564C7.72822 14.9411 7.64941 15.013 7.5775 15.0889C7.51741 15.1519 7.44452 15.2041 7.38542 15.2642C7.18644 15.4671 6.93722 15.5844 6.688 15.6986C6.58949 15.7439 6.48508 15.7814 6.37574 15.805C6.19252 15.8444 6.01028 15.8838 5.83199 15.875L5.83396 15.873Z" fill="#091E42" fill-opacity="0.31"/>
<path opacity="0.3" d="M14.5398 10.9695C14.9664 10.9695 15.2885 11.0246 15.5919 11.1675C15.651 11.1951 15.713 11.2177 15.7741 11.2394C15.8135 11.2532 15.846 11.2768 15.8785 11.3014C15.9455 11.3507 16.0125 11.4019 16.0844 11.4423C16.1297 11.4679 16.1711 11.4945 16.2075 11.5319C16.3248 11.6521 16.4577 11.7565 16.5651 11.8876C16.6725 12.0195 16.7808 12.1496 16.8449 12.3092C16.8665 12.3633 16.9266 12.4047 16.9049 12.4756C16.9049 12.4776 16.9365 12.5111 16.9444 12.5367C16.9956 12.6933 17.0497 12.849 17.0754 13.0135C17.1148 13.2706 17.1217 13.5286 17.0832 13.7857C17.035 14.098 16.9384 14.3975 16.7749 14.6693C16.7168 14.7659 16.6587 14.8644 16.5759 14.9461C16.4646 15.0565 16.3701 15.1855 16.2489 15.284C16.1435 15.3687 16.0381 15.4584 15.915 15.5214C15.7997 15.5795 15.6874 15.6455 15.5682 15.6928C15.455 15.7381 15.3407 15.7805 15.2215 15.811C14.9821 15.8711 14.7398 15.8839 14.4955 15.8731C14.3241 15.8652 14.1557 15.8317 13.9931 15.7785C13.8395 15.7273 13.6878 15.6672 13.539 15.6012C13.4376 15.5559 13.3538 15.4771 13.2583 15.4199C13.0987 15.3244 12.9775 15.1885 12.8475 15.0614C12.6653 14.8841 12.5156 14.6792 12.42 14.4438C12.3225 14.2054 12.2506 13.9571 12.222 13.7C12.1984 13.4892 12.2043 13.2775 12.2319 13.0676C12.2762 12.7337 12.3855 12.4185 12.5678 12.1387C12.8071 11.7713 13.1184 11.4699 13.5154 11.2689C13.5449 11.2542 13.5745 11.2394 13.6031 11.2246C13.9271 11.0591 14.2709 10.9744 14.5418 10.9705L14.5398 10.9695Z" fill="#091E42" fill-opacity="0.31"/>
</g>
<defs>
<clipPath id="clip0_7653_42230">
<rect width="19.6932" height="15.75" fill="white" transform="translate(0.375 0.125)"/>
</clipPath>
</defs>
</svg>
