<svg width="16" height="16" viewBox="0 0 16 16" fill="none" xmlns="http://www.w3.org/2000/svg">
<path d="M3.33333 4.66666V11.3333H12.6667V4.66666H3.33333ZM12.6667 3.33333C13.4 3.33333 14 3.93333 14 4.66666V11.3333C14 12.0667 13.4 12.6667 12.6667 12.6667H3.33333C2.6 12.6667 2 12.0667 2 11.3333V4.66666C2 3.93333 2.6 3.33333 3.33333 3.33333H12.6667Z" fill="#091E42" fill-opacity="0.31"/>
<path fill-rule="evenodd" clip-rule="evenodd" d="M3.66533 4.33333H2.08267C2.182 4.62666 2.34867 4.90266 2.58267 5.13666L6.504 9.05733C6.69698 9.25048 6.92614 9.4037 7.17837 9.50824C7.4306 9.61278 7.70096 9.66659 7.974 9.66659C8.24704 9.66659 8.5174 9.61278 8.76963 9.50824C9.02186 9.4037 9.25102 9.25048 9.444 9.05733L13.3653 5.13666C13.5987 4.90266 13.7653 4.62666 13.8647 4.33333H12.2827L8.50133 8.11466C8.43206 8.18398 8.3498 8.23898 8.25926 8.27649C8.16872 8.31401 8.07167 8.33333 7.97367 8.33333C7.87566 8.33333 7.77862 8.31401 7.68808 8.27649C7.59754 8.23898 7.51528 8.18398 7.446 8.11466L3.66533 4.33333Z" fill="#091E42" fill-opacity="0.31"/>
</svg>
