<svg width="23" height="18" viewBox="0 0 23 18" fill="none" xmlns="http://www.w3.org/2000/svg">
<g clip-path="url(#clip0_7653_2004)">
<path opacity="0.3" d="M22.4912 16.0175V2.13125C22.4912 2 22.4999 1.85125 22.4737 1.72C22.4562 1.58875 22.4299 1.44 22.3774 1.3175C22.2987 1.09875 22.1937 0.915 22.0362 0.74875C21.6949 0.39875 21.2662 0.25 20.7937 0.25H11.0637C10.9587 0.25 10.8624 0.25 10.7662 0.2675C10.6262 0.31125 10.4774 0.34625 10.3462 0.39875C10.0662 0.495 9.84742 0.67875 9.68992 0.915C9.46242 1.2475 9.35742 1.60625 9.37492 2C9.39242 2.83125 9.38367 3.67125 9.38367 4.5025V4.61625H12.8837C13.0412 4.61625 13.1899 4.61625 13.3474 4.63375C13.7587 4.6775 14.1262 4.835 14.4062 5.15C14.7387 5.5 14.8437 5.92875 14.8437 6.3925C14.8437 6.7425 14.8437 7.10125 14.8349 7.46C14.8174 7.7575 14.7212 8.0375 14.5374 8.29125C14.3624 8.53625 14.1262 8.72 13.8462 8.8425C13.7762 8.8775 13.7499 8.9125 13.7499 9V16.595C13.7499 16.9713 13.7849 17.3563 13.6362 17.7325H13.7674C16.0599 17.7325 18.3437 17.7413 20.6362 17.7325C20.7674 17.7325 20.8987 17.7325 21.0387 17.7238C21.4062 17.6713 21.7299 17.5225 21.9924 17.2688C22.1762 17.0938 22.2899 16.875 22.3687 16.6563C22.3862 16.6038 22.4474 16.5513 22.4474 16.5163C22.4387 16.4025 22.4387 16.2888 22.5087 16.2013C22.5174 16.1925 22.5087 16.1663 22.5087 16.1575C22.4999 16.105 22.4737 16.0613 22.4737 16.0175H22.4912ZM20.0937 12.1413C19.8137 12.3775 19.5949 12.3075 19.3674 12.0975C19.0262 11.765 18.7024 11.4413 18.3612 11.1088C18.2999 11.0475 18.2299 10.9775 18.1599 10.9163C18.1512 10.9163 18.1512 10.9075 18.1424 10.9075V14.845C18.1424 14.9588 18.1337 15.0725 18.0987 15.1863C18.0462 15.4313 17.7574 15.5975 17.5124 15.5538C17.2237 15.5013 17.0487 15.335 17.0487 15.0288C17.0399 14.4163 17.0399 13.7863 17.0399 13.1738V10.8988H17.0312C17.0312 10.8988 16.9874 10.9338 16.9699 10.9513C16.6112 11.3013 16.2524 11.6513 15.8937 12.0013C15.8412 12.0625 15.7799 12.115 15.7187 12.1675C15.4562 12.3688 15.1412 12.325 14.9574 12.0363C14.7737 11.7738 14.8174 11.5725 15.0537 11.3363C15.5699 10.8025 16.1037 10.2775 16.6199 9.7525C16.8212 9.55125 17.0399 9.34125 17.2587 9.14C17.4162 9 17.6962 8.9825 17.8712 9.1225C17.9324 9.16625 17.9849 9.21875 18.0374 9.2625C18.7287 9.93625 19.4024 10.6275 20.0937 11.3013C20.1462 11.3538 20.1899 11.415 20.2249 11.4763C20.4087 11.7125 20.2949 11.9925 20.1024 12.1413H20.0937Z" fill="#091E42" fill-opacity="0.31"/>
<path d="M1.70999 8.99121V16.56C1.70999 16.56 1.71874 16.6562 1.70124 16.6825C1.66624 16.7962 1.71874 16.9012 1.75374 16.9975C1.77124 17.1025 1.81499 17.2337 1.91999 17.3125C1.93749 17.33 1.97249 17.365 1.98999 17.3912C2.05999 17.5225 2.19124 17.575 2.32249 17.6362C2.48874 17.7412 2.68124 17.7412 2.86499 17.7412C5.73499 17.7325 8.62249 17.7412 11.51 17.7325C11.6062 17.7325 11.7025 17.7325 11.7987 17.715C12.105 17.6625 12.3325 17.4962 12.4987 17.2337C12.63 17.0412 12.665 16.8137 12.665 16.5775V8.99121H1.70999ZM9.34874 11.8175C9.27874 12.1587 9.11249 12.2812 8.75374 12.2812H5.59499C5.37624 12.2812 5.19249 12.22 5.06999 12.0187C4.89499 11.7125 5.03499 11.2925 5.41999 11.205C5.48999 11.1962 5.55124 11.1875 5.62124 11.1875H8.77124C8.89374 11.1875 9.01624 11.2225 9.12999 11.2837C9.31374 11.3887 9.38374 11.6512 9.34874 11.8262V11.8175Z" fill="#091E42" fill-opacity="0.31"/>
<path d="M7.1525 7.90625C5.175 7.90625 3.20625 7.90625 1.22875 7.90625C1.0975 7.90625 0.975 7.90625 0.86125 7.81875C0.7125 7.705 0.625 7.57375 0.625 7.38125C0.625 6.99625 0.625 6.62 0.625 6.235C0.625 6.03375 0.7125 5.885 0.87875 5.7975C0.98375 5.745 1.115 5.7275 1.22875 5.71875C2.4975 5.71875 3.76625 5.71875 5.035 5.71875C7.73 5.71875 10.425 5.71875 13.12 5.71875C13.2688 5.71875 13.4175 5.745 13.5487 5.84125C13.7063 5.955 13.7413 6.13 13.7413 6.305C13.7413 6.64625 13.75 6.9875 13.7413 7.32875C13.7413 7.53875 13.6887 7.74 13.4787 7.83625C13.3737 7.88 13.2513 7.90625 13.1375 7.90625C12.1575 7.90625 11.1775 7.90625 10.2063 7.90625H7.1525Z" fill="#091E42" fill-opacity="0.31"/>
</g>
<defs>
<clipPath id="clip0_7653_2004">
<rect width="21.9013" height="17.5" fill="white" transform="translate(0.625 0.25)"/>
</clipPath>
</defs>
</svg>
