<svg width="56" height="56" viewBox="0 0 56 56" fill="none" xmlns="http://www.w3.org/2000/svg">
<path d="M0 28C0 12.536 12.536 0 28 0C43.464 0 56 12.536 56 28C56 43.464 43.464 56 28 56C12.536 56 0 43.464 0 28Z" fill="#22A06B"/>
<path d="M18.7859 28.5635C18.47 28.2275 18.0341 28.0298 17.5732 28.0134C17.1122 27.997 16.6635 28.1632 16.3244 28.476C15.9854 28.7887 15.7836 29.2226 15.7628 29.6834C15.742 30.1442 15.9039 30.5945 16.2134 30.9365L22.5344 37.7947C23.4742 38.7152 24.8742 38.7152 25.7439 37.8472L26.3809 37.219C28.6813 34.9566 30.9791 32.6915 33.2742 30.4237L33.3442 30.3537C35.4891 28.2399 37.623 26.1147 39.7457 23.9785C40.0629 23.6463 40.2369 23.2028 40.23 22.7435C40.2231 22.2842 40.0359 21.8461 39.7088 21.5236C39.3817 21.2011 38.941 21.0202 38.4817 21.0198C38.0224 21.0194 37.5813 21.1996 37.2537 21.5215C35.1408 23.6466 33.0175 25.7612 30.8837 27.8652L30.8137 27.9352C28.6144 30.1093 26.4123 32.2804 24.2074 34.4487L18.7859 28.5635Z" fill="white"/>
</svg>
