<svg width="24" height="24" viewBox="0 0 24 24" fill="none" xmlns="http://www.w3.org/2000/svg">
<path fill-rule="evenodd" clip-rule="evenodd" d="M11.0621 4.96699C11.5781 3.99299 12.4201 3.98899 12.9381 4.96699L20.0621 18.425C20.5781 19.399 20.1071 20.196 19.0051 20.196H4.99507C3.89307 20.196 3.42007 19.403 3.93807 18.425L11.0621 4.96699ZM11.293 14.7071C11.4805 14.8946 11.7349 15 12.0001 15C12.2653 15 12.5196 14.8946 12.7072 14.7071C12.8947 14.5196 13.0001 14.2652 13.0001 14V8.99998C13.0001 8.73477 12.8947 8.48041 12.7072 8.29288C12.5196 8.10534 12.2653 7.99998 12.0001 7.99998C11.7349 7.99998 11.4805 8.10534 11.293 8.29288C11.1054 8.48041 11.0001 8.73477 11.0001 8.99998V14C11.0001 14.2652 11.1054 14.5196 11.293 14.7071ZM11.293 17.7071C11.4805 17.8946 11.7349 18 12.0001 18C12.2653 18 12.5196 17.8946 12.7072 17.7071C12.8947 17.5196 13.0001 17.2652 13.0001 17C13.0001 16.7348 12.8947 16.4804 12.7072 16.2929C12.5196 16.1053 12.2653 16 12.0001 16C11.7349 16 11.4805 16.1053 11.293 16.2929C11.1054 16.4804 11.0001 16.7348 11.0001 17C11.0001 17.2652 11.1054 17.5196 11.293 17.7071Z" fill="#E56910"/>
</svg>
